<svg width="12" height="11" viewBox="0 0 12 11" fill="none" xmlns="http://www.w3.org/2000/svg">
<path d="M4.39988 8.43338L5.99988 7.20004L7.59988 8.43338L6.99988 6.40004L8.49988 5.33338H6.63321L5.99988 3.26671L5.36655 5.33338H3.49988L4.99988 6.40004L4.39988 8.43338ZM5.99988 8.86671L3.53321 10.75C3.41099 10.85 3.27766 10.8973 3.13321 10.8917C2.98877 10.8862 2.86099 10.8445 2.74988 10.7667C2.63877 10.6889 2.55266 10.5834 2.49155 10.45C2.43043 10.3167 2.42766 10.1723 2.48321 10.0167L3.43321 6.93338L1.01655 5.21671C0.883212 5.12782 0.799879 5.01116 0.766546 4.86671C0.733212 4.72227 0.738768 4.58893 0.783212 4.46671C0.827657 4.34449 0.905435 4.23616 1.01655 4.14171C1.12766 4.04727 1.26099 4.00004 1.41655 4.00004H4.39988L5.36655 0.800045C5.4221 0.644489 5.50821 0.525045 5.62488 0.441711C5.74155 0.358378 5.86655 0.316711 5.99988 0.316711C6.13321 0.316711 6.25821 0.358378 6.37488 0.441711C6.49155 0.525045 6.57766 0.644489 6.63321 0.800045L7.59988 4.00004H10.5832C10.7388 4.00004 10.8721 4.04727 10.9832 4.14171C11.0943 4.23616 11.1721 4.34449 11.2165 4.46671C11.261 4.58893 11.2665 4.72227 11.2332 4.86671C11.1999 5.01116 11.1165 5.12782 10.9832 5.21671L8.56655 6.93338L9.51655 10.0167C9.5721 10.1723 9.56932 10.3167 9.50821 10.45C9.4471 10.5834 9.36099 10.6889 9.24988 10.7667C9.13877 10.8445 9.01099 10.8862 8.86655 10.8917C8.7221 10.8973 8.58877 10.85 8.46655 10.75L5.99988 8.86671Z" fill="url(#paint0_linear_16_9744)"/>
<defs>
<linearGradient id="paint0_linear_16_9744" x1="5.99988" y1="0.316711" x2="5.99988" y2="10.8921" gradientUnits="userSpaceOnUse">
<stop stop-color="#4881FF"/>
<stop offset="1" stop-color="#0151FF"/>
</linearGradient>
</defs>
</svg>
